<svg width="14" height="22" viewBox="0 0 14 22" fill="none" xmlns="http://www.w3.org/2000/svg">
<path d="M4.5001 0.75C4.08444 0.75 3.71212 1.00713 3.56491 1.39585L3.33532 2.00213C2.84314 1.95295 2.38967 1.90387 2.02258 1.86265C1.74817 1.83184 1.52259 1.80549 1.3659 1.78687L1.18515 1.76518L1.12377 1.75768C0.575675 1.68981 0.0755572 2.07901 0.0076843 2.6271C-0.0601894 3.1752 0.32911 3.67455 0.877208 3.74242L0.943999 3.75059L1.12998 3.77291C1.29032 3.79196 1.52019 3.81881 1.79942 3.85016C2.35738 3.91281 3.11468 3.99369 3.90922 4.0662C4.981 4.16401 6.15582 4.25 7.0001 4.25C7.84438 4.25 9.01921 4.16401 10.091 4.0662C10.8855 3.99369 11.6428 3.91281 12.2008 3.85016C12.48 3.81881 12.7099 3.79196 12.8702 3.77291L13.0562 3.75059L13.1229 3.74244C13.671 3.67456 14.0604 3.1752 13.9925 2.6271C13.9247 2.07901 13.4253 1.68972 12.8772 1.75758L12.8151 1.76518L12.6343 1.78687C12.4776 1.80549 12.252 1.83184 11.9776 1.86265C11.6105 1.90387 11.1571 1.95295 10.6649 2.00213L10.4353 1.39585C10.2881 1.00713 9.91577 0.75 9.5001 0.75H4.5001Z" fill="#98A2B3"/>
<path d="M6.0001 10.75C6.0001 10.1977 5.55239 9.75 5.0001 9.75C4.44782 9.75 4.0001 10.1977 4.0001 10.75V15.75C4.0001 16.3023 4.44782 16.75 5.0001 16.75C5.55239 16.75 6.0001 16.3023 6.0001 15.75V10.75Z" fill="#98A2B3"/>
<path d="M9.0001 9.75C9.55239 9.75 10.0001 10.1977 10.0001 10.75V15.75C10.0001 16.3023 9.55239 16.75 9.0001 16.75C8.44782 16.75 8.0001 16.3023 8.0001 15.75V10.75C8.0001 10.1977 8.44782 9.75 9.0001 9.75Z" fill="#98A2B3"/>
<path fill-rule="evenodd" clip-rule="evenodd" d="M13.9098 7.05056C14.0004 5.78179 12.9065 4.76463 11.6634 4.9083C10.3914 5.0553 8.42844 5.25 7.0001 5.25C5.57176 5.25 3.60884 5.0553 2.33681 4.9083C1.09368 4.76463 -0.000173315 5.78179 0.090453 7.05056L0.947186 19.0448C1.01213 19.954 1.68937 20.7228 2.61875 20.8626C3.61535 21.0124 5.44405 21.2518 7.00126 21.25C8.53934 21.2482 10.3755 21.0099 11.3765 20.8614C12.3074 20.7232 12.9881 19.954 13.0532 19.0421L13.9098 7.05056ZM11.893 6.89507C11.8965 6.89467 11.8991 6.89491 11.8991 6.89491L11.9018 6.89551C11.904 6.89628 11.9075 6.89811 11.9109 6.90137C11.9132 6.90353 11.9149 6.90617 11.9149 6.90617L11.9148 6.90806L11.0592 18.8865C10.0685 19.0329 8.37063 19.2484 6.99895 19.25C5.61239 19.2516 3.92497 19.0359 2.94112 18.8885L2.08537 6.90806L2.0853 6.90617C2.0853 6.90617 2.087 6.90353 2.08928 6.90137C2.09272 6.89811 2.09621 6.89628 2.09843 6.89551L2.10108 6.89491C2.10108 6.89491 2.10374 6.89467 2.1072 6.89507C3.38149 7.04234 5.44555 7.25 7.0001 7.25C8.55466 7.25 10.6187 7.04234 11.893 6.89507Z" fill="#98A2B3"/>
</svg>
